<?xml version="1.0" standalone="no"?>
        <!DOCTYPE svg PUBLIC "-//W3C//DTD SVG 1.1//EN" 
        "http://www.w3.org/Graphics/SVG/1.1/DTD/svg11.dtd"><svg id="changeColor" fill="#DC7633" xmlns="http://www.w3.org/2000/svg" xmlns:xlink="http://www.w3.org/1999/xlink" width="200" zoomAndPan="magnify" viewBox="0 0 375 374.9999" height="200" preserveAspectRatio="xMidYMid meet" version="1.0" transform="rotate(0)" style="transform: none;"><defs><path id="pathAttribute" d="M 12 41 L 365 41 L 365 342.5625 L 12 342.5625 Z M 12 41 " filter="url(#bgShadow)" fill="#737373"><filter id="bgShadow"><feDropShadow id="bgShadowValue" stdDeviation="0" dx="0" dy="-1" flood-color="black"></feDropShadow></filter></path></defs><g><path id="pathAttribute" d="M 329.851562 60.484375 C 293.261719 32.300781 222.15625 32.136719 188.644531 86.457031 C 155.128906 32.136719 84.027344 32.300781 47.4375 60.484375 C 14.746094 85.664062 9.378906 126.5625 13.933594 156.269531 C 22.902344 214.917969 70.230469 256.320312 188.644531 342.539062 C 307.058594 256.320312 354.386719 214.917969 363.355469 156.269531 C 367.910156 126.5625 362.542969 85.664062 329.851562 60.484375 " fill-opacity="1" fill-rule="nonzero" filter="url(#bgShadow)" fill="#737373"></path></g><g id="inner-icon" transform="translate(85,95)"> <svg xmlns="http://www.w3.org/2000/svg" width="196" height="196" fill="currentColor" class="bi bi-currency-dollar" viewBox="0 0 16 16" id="IconChangeColor"> <path d="M4 10.781c.148 1.667 1.513 2.85 3.591 3.003V15h1.043v-1.216c2.27-.179 3.678-1.438 3.678-3.3 0-1.59-.947-2.51-2.956-3.028l-.722-.187V3.467c1.122.11 1.879.714 2.07 1.616h1.47c-.166-1.6-1.54-2.748-3.54-2.875V1H7.591v1.233c-1.939.23-3.27 1.472-3.27 3.156 0 1.454.966 2.483 2.661 2.917l.61.162v4.031c-1.149-.17-1.94-.8-2.131-1.718H4zm3.391-3.836c-1.043-.263-1.6-.825-1.6-1.616 0-.944.704-1.641 1.8-1.828v3.495l-.2-.05zm1.591 1.872c1.287.323 1.852.859 1.852 1.769 0 1.097-.826 1.828-2.2 1.939V8.73l.348.086z" id="mainIconPathAttribute" stroke-width="0" stroke="#ff0000" fill="#ffffff" filter="url(#shadow)"></path> <filter id="shadow"><feDropShadow id="shadowValue" stdDeviation="0" dx="0" dy="0" flood-color="black"></feDropShadow></filter></svg> </g><animateTransform xlink:href="#changeColor" attributeType="xml" attributeName="transform" type="rotate" from="0" to="359" dur="2s" repeatCount="indefinite"></animateTransform></svg>